<svg xmlns="http://www.w3.org/2000/svg" viewBox="0 0 73 74"><path d="M7 6.882c0 .55.45 1.278 1 1.618.55.34 1 .168 1-.382S8.55 6.84 8 6.5c-.55-.34-1-.168-1 .382m1.073 5.753c-2.75 3.495-2.618 6.911.382 9.91C13.177 27.268 21 24.077 21 17.427c0-7.096-8.606-10.286-12.927-4.792m.484.588C6.433 16.254 6.602 19.602 9 22c4.104 4.104 11 1.345 11-4.402 0-6.172-8.034-9.244-11.443-4.375M51.965 25.25c-1.104 1.788-2.276 4.283-2.606 5.546-.551 2.112-.739 2.17-2.336.725-2.756-2.495-4.391.301-3.796 6.494.509 5.294 2.896 8.985 5.811 8.985.951 0 1.964.9 2.252 2 .287 1.1.115 2-.384 2-.498 0-.924 1.462-.945 3.25l-.039 3.25-1.468-3.381c-1.379-3.176-1.702-3.349-5.356-2.859-2.778.373-4.347.062-5.496-1.087-1.076-1.076-3.096-1.543-6.105-1.412-2.473.108-4.497-.245-4.497-.783S28.302 47 29.893 47C33.311 47 34 45.647 34 38.941c0-6.682-3.213-9.164-8.562-6.613-1.891.902-3.438 2.11-3.438 2.686 0 .575 1.34.055 2.977-1.155 2.555-1.889 3.345-2.033 5.579-1.016 3.393 1.546 2.649 3.573-1.46 3.976-2.551.251-3.533.991-4.563 3.441-1.111 2.642-1.389 2.823-1.807 1.181-.348-1.367-.528-1.469-.61-.346-.064.877.784 2.41 1.884 3.405 1.1.995 2 2.689 2 3.764 0 1.675.536 1.888 3.75 1.487 7.109-.887 12.767 4.801 11.872 11.937-.194 1.547-.157 2.024.082 1.062C42.572 59.258 47 60.554 47 64.3c0 4.488-1.466 5.782-5.11 4.512-2.409-.84-2.89-1.563-2.89-4.351 0-1.839-.521-3.665-1.158-4.058-.811-.502-.965.003-.513 1.691.354 1.323.657 3.981.673 5.906.019 2.339.313 3.051.886 2.147.659-1.039 1.336-1.097 2.919-.25 3.659 1.958 6.178-.356 6.225-5.718.017-2.024.692-4.553 1.5-5.62.807-1.068 1.468-2.755 1.468-3.75 0-1.343.772-1.809 3-1.809 2.189 0 3.001.473 3.004 1.75.002.962.864 3.161 1.915 4.885 1.052 1.724 2.114 4.199 2.36 5.5l.449 2.365.129-2.5c.072-1.375-.764-3.85-1.857-5.5s-1.99-4.237-1.993-5.75c-.004-1.513-.415-2.75-.913-2.75-.499 0-.671-.9-.384-2 .288-1.1 1.076-2 1.752-2 2.45 0 4.338-3.628 5.016-9.638.792-7.026-.591-9.176-3.55-5.521-2.377 2.935-2.746 2.753-3.234-1.591-.235-2.09-.316-1.553-.184 1.213C56.768 36.854 55.424 42 53.76 42c-.673 0-.85-2.222-.497-6.25.331-3.778.229-5.261-.258-3.75-.443 1.375-.857 3.85-.921 5.5-.089 2.322-.334 2.661-1.084 1.5-1.589-2.459-1.135-7.815 1.02-12.04 2.172-4.256 2.881-4.654 4.839-2.71 1.01 1.002 1.127.903.593-.5-1.027-2.698-3.276-2.083-5.487 1.5m-7.298 6.417C42.518 33.815 45.374 46 48.026 46c1.312 0 1.178-1.019-.526-4-.786-1.375-1.435-3.175-1.443-4-.007-.825.957.525 2.143 3 1.714 3.579 2.231 4.075 2.524 2.425.203-1.141-.8-4.404-2.23-7.25-2.761-5.497-2.797-5.539-3.827-4.508m15.098 1.583c-3.582 5.5-5.688 11.788-4.699 14.03.866 1.961.914 1.89.417-.614-.326-1.64-.17-2.591.371-2.256.514.317 1.676-1.276 2.582-3.541.906-2.265 1.86-3.907 2.119-3.647.259.259-.236 2.164-1.1 4.233-1.765 4.222-1.555 5.107.779 3.285.977-.764 1.852-3.642 2.275-7.49.73-6.639-.171-7.952-2.744-4m-34.677 7.926c-.608 1.747-.801 2.871-.428 2.498.373-.373 1.468.037 2.434.911 2.915 2.638 5.363 1.42 5.716-2.843.304-3.662.237-3.742-3.152-3.742-2.991 0-3.613.433-4.57 3.176m26.692 3.965c-.284.747-.048 2.484.525 3.859 1.028 2.467 1.047 2.471 1.434.279.485-2.744-1.164-6.226-1.959-4.138m-32.419 5.781c-2.031 1.238-4.076 3.96-5.792 7.708-2.979 6.507-2.995 9.126-.066 10.755 1.818 1.012 1.841.988.25-.257-3.839-3.004 1.379-15.375 7.695-18.244 2.229-1.012 3.377-1.848 2.552-1.858-.825-.01-2.913.843-4.639 1.896m23.389 1.74c.688.278 1.813.278 2.5 0 .688-.277.125-.504-1.25-.504s-1.937.227-1.25.504m-.722 3.391c.851 1.589 1.737 1.972 3.528 1.522 1.971-.494 2.282-.29 1.77 1.163-.443 1.257-.301 1.471.494.745 2.228-2.034.266-5.068-3.438-5.318-3.271-.22-3.419-.102-2.354 1.888m1.785 3.63c.721.289 1.584.253 1.916-.079.332-.332-.258-.568-1.312-.525-1.165.048-1.402.285-.604.604M20.15 62.167c-.083 1.466-.712 2.893-1.4 3.171-.687.277.452.54 2.532.583 2.947.062 3.982.576 4.687 2.329.497 1.237.933 1.688.968 1 .085-1.676 3.92-1.573 7.313.197 1.513.789 2.75 1.055 2.75.592C37 68.97 31.43 67 28.41 67c-1.261 0-2.57-.45-2.91-1-.34-.55-1.462-1-2.493-1-1.277 0-2.007-.876-2.291-2.75L20.3 59.5l-.15 2.667" fill-rule="evenodd"/></svg>